<svg width="640" height="640" viewBox="0 0 640 640" fill="none" xmlns="http://www.w3.org/2000/svg">
<path fill-rule="evenodd" clip-rule="evenodd" d="M559.435 377.261L557.856 379.801L556.326 382.353L554.845 384.919L553.412 387.503L552.028 390.106L550.689 392.733L549.395 395.384L548.144 398.063L546.932 400.77L545.758 403.508L544.618 406.278L543.509 409.08L542.427 411.917L541.368 414.787L540.328 417.691L539.303 420.63L538.288 423.601L537.279 426.605L536.27 429.641L534.238 435.8L533.205 438.921L532.153 442.065L531.079 445.23L529.978 448.415L528.846 451.615L527.679 454.829L526.472 458.052L525.222 461.282L523.925 464.515L522.578 467.748L521.178 470.978L519.723 474.201L518.21 477.413L516.637 480.613L515.003 483.796L513.306 486.959L511.545 490.101L509.72 493.219L507.83 496.311L505.875 499.374L503.856 502.407L501.772 505.408L499.623 508.375L497.411 511.307L495.136 514.202L492.799 517.06L490.4 519.879L487.941 522.658L485.422 525.397L482.845 528.094L480.21 530.749L477.519 533.362L474.774 535.933L471.974 538.461L469.123 540.946L466.22 543.388L463.268 545.788L460.267 548.146L457.219 550.462L454.125 552.736L450.986 554.97L447.803 557.163L444.578 559.316L441.311 561.429L438.003 563.504L434.655 565.54L431.268 567.538L427.842 569.499L424.379 571.423L420.879 573.311L417.343 575.162L413.77 576.976L410.162 578.755L406.518 580.498L402.84 582.204L399.127 583.873L395.379 585.506L391.597 587.1L387.782 588.657L383.933 590.174L380.05 591.651L376.134 593.087L372.185 594.48L368.204 595.829L364.19 597.132L360.144 598.387L356.067 599.594L351.958 600.752L347.82 601.858L343.652 602.912L339.455 603.913L335.229 604.861L330.976 605.753L326.697 606.59L322.391 607.37L318.06 608.093L313.704 608.758L309.325 609.364L304.924 609.909L300.501 610.394L296.057 610.817L291.594 611.177L287.112 611.474L282.613 611.705L278.097 611.871L273.567 611.97L269.022 612L264.466 611.961L259.898 611.852L255.322 611.671L250.737 611.416L246.146 611.088L241.551 610.685L236.953 610.204L232.354 609.646L227.756 609.009L223.161 608.292L218.571 607.493L213.989 606.612L209.416 605.648L204.855 604.599L200.308 603.465L195.777 602.244L191.266 600.937L186.775 599.541L182.309 598.058L177.869 596.486L173.458 594.825L169.079 593.075L164.734 591.235L160.425 589.307L156.156 587.289L151.928 585.183L147.744 582.988L143.607 580.706L139.519 578.338L135.482 575.883L131.498 573.343L127.57 570.72L123.7 568.015L119.889 565.229L116.139 562.363L112.453 559.42L108.832 556.401L105.277 553.307L101.791 550.142L98.3732 546.907L95.0262 543.605L91.7507 540.236L88.5477 536.804L85.418 533.312L82.3625 529.761L79.3817 526.153L76.4762 522.492L73.6463 518.779L70.8925 515.017L68.2149 511.208L65.6137 507.356L63.0889 503.461L60.6406 499.527L58.2688 495.555L55.9733 491.549L53.7539 487.509L51.6106 483.439L49.5431 479.34L47.5513 475.215L45.6348 471.064L43.7933 466.891L42.0264 462.698L40.3336 458.485L38.7143 454.255L37.1677 450.011L35.6933 445.753L34.29 441.483L32.9573 437.204L31.6942 432.917L30.4999 428.623L29.3736 424.324L28.3144 420.022L27.3217 415.717L26.3945 411.412L25.5323 407.106L24.7343 402.803L23.9999 398.502L23.3286 394.205L22.7199 389.912L22.1733 385.625L21.6884 381.345L21.2649 377.073L20.9026 372.808L20.6011 368.553L20.3602 364.308L20.1799 360.074L20.0599 355.851L20 351.641L20.0001 347.443L20.0599 343.26L20.1791 339.092L20.3575 334.939L20.5946 330.803L20.8899 326.684L21.2426 322.583L21.6521 318.5L22.1176 314.438L22.6385 310.396L23.2145 306.375L23.8451 302.375L24.5302 298.398L25.2698 294.445L26.0639 290.515L26.9126 286.609L27.8163 282.729L28.7752 278.875L29.7898 275.048L30.8605 271.248L31.988 267.477L33.1728 263.735L34.4154 260.024L35.7167 256.344L37.0771 252.697L38.4973 249.083L39.978 245.505L41.5196 241.962L43.1227 238.456L44.7877 234.99L46.515 231.563L48.3049 228.177L50.1575 224.835L52.073 221.536L54.0512 218.283L56.092 215.078L58.1951 211.92L60.36 208.813L62.5862 205.757L64.8728 202.754L67.219 199.804L69.6236 196.91L72.0855 194.072L74.6032 191.292L77.1753 188.57L79.8 185.908L82.4754 183.307L85.1996 180.766L87.9705 178.287L90.7857 175.871L93.6429 173.517L96.5395 171.226L99.4731 168.998L102.441 166.833L105.44 164.731L108.468 162.691L111.521 160.713L114.597 158.797L117.692 156.941L120.804 155.145L123.929 153.407L127.065 151.726L130.209 150.101L133.357 148.531L136.506 147.014L139.655 145.547L142.799 144.13L145.937 142.759L149.066 141.434L152.183 140.152L155.286 138.911L158.373 137.708L161.442 136.541L164.49 135.407L167.516 134.305L170.517 133.231L173.494 132.183L176.443 131.159L179.364 130.155L182.255 129.168L190.742 126.289L193.505 125.347L196.236 124.409L198.932 123.471L201.595 122.532L204.222 121.589L206.816 120.637L209.375 119.675L211.899 118.7L214.39 117.708L216.848 116.697L219.274 115.665L221.668 114.609L224.032 113.528L226.368 112.418L228.676 111.279L230.959 110.108L233.218 108.904L235.456 107.666L237.675 106.392L239.876 105.083L242.062 103.737L244.236 102.354L246.4 100.934L248.557 99.4758L250.709 97.9812L252.859 96.4502L255.009 94.8834L257.163 93.2818L259.323 91.6466L261.491 89.9791L263.671 88.2809L265.865 86.5538L268.075 84.7998L270.304 83.0209L277.129 77.5599L279.458 75.707L281.816 73.8426L284.207 71.9697L286.632 70.0917L289.091 68.2118L291.588 66.3334L294.123 64.46L296.698 62.595L299.312 60.7423L301.968 58.9052L304.666 57.0876L307.407 55.2931L310.19 53.5253L313.016 51.7879L315.885 50.0846L318.797 48.419L321.751 46.7946L324.747 45.2151L327.785 43.684L330.863 42.205L333.981 40.7814L337.137 39.4168L340.33 38.1146L343.559 36.878L346.821 35.7102L350.117 34.6143L353.442 33.5933L356.797 32.65L360.177 31.787L363.582 31.007L367.009 30.3123L370.454 29.7051L373.917 29.1874L377.394 28.7611L380.882 28.4279L384.379 28.1891L387.882 28.0461L391.388 28L394.894 28.0516L398.398 28.2016L401.896 28.4504L405.386 28.7985L408.864 29.2458L412.328 29.7923L415.775 30.4376L419.202 31.1815L422.606 32.0233L425.985 32.9622L429.336 33.9974L432.656 35.1277L435.943 36.3521L439.194 37.6693L442.407 39.0776L445.579 40.5752L448.709 42.1601L451.794 43.8299L454.833 45.5818L457.825 47.413L460.768 49.3205L463.661 51.3009L466.504 53.3507L469.296 55.4662L472.036 57.6437L474.726 59.8791L477.365 62.1685L479.954 64.5076L482.493 66.8924L484.984 69.3185L487.429 71.7818L489.828 74.278L492.185 76.803L494.5 79.3527L496.776 81.9231L499.017 84.5102L501.224 87.1103L503.4 89.7198L505.55 92.3353L507.675 94.9535L509.779 97.5714L511.866 100.186L518.056 107.989L520.108 110.569L522.16 113.136L524.215 115.689L526.278 118.227L528.35 120.749L530.435 123.256L532.536 125.747L534.655 128.223L536.796 130.685L538.959 133.133L541.148 135.568L543.363 137.992L545.606 140.408L547.878 142.815L550.18 145.218L552.511 147.618L554.871 150.018L557.259 152.421L559.673 154.831L562.11 157.25L567.045 162.132L569.534 164.601L572.032 167.094L574.534 169.615L577.034 172.165L579.528 174.75L582.007 177.37L584.467 180.031L586.9 182.732L589.299 185.478L591.657 188.27L593.967 191.108L596.221 193.996L598.412 196.932L600.533 199.919L602.576 202.955L604.534 206.04L606.401 209.175L608.17 212.357L609.834 215.585L611.387 218.857L612.824 222.172L614.14 225.525L615.331 228.916L616.392 232.34L617.32 235.794L618.113 239.275L618.768 242.779L619.285 246.301L619.662 249.837L619.9 253.385L620 256.938L619.962 260.494L619.789 264.048L619.481 267.596L619.042 271.134L618.475 274.659L617.782 278.166L616.968 281.653L616.037 285.115L614.993 288.55L613.842 291.955L612.588 295.327L611.237 298.664L609.796 301.964L608.269 305.224L606.664 308.444L604.986 311.622L603.243 314.757L601.44 317.848L599.586 320.896L597.686 323.901L595.747 326.861L593.777 329.78L591.781 332.656L589.767 335.492L587.74 338.289L585.707 341.048L583.674 343.773L581.647 346.465L579.631 349.126L575.653 354.368L573.701 356.955L571.779 359.524L569.891 362.077L568.04 364.617L566.229 367.15L564.462 369.677L562.739 372.202L561.063 374.729L559.435 377.261Z" fill="#e0f2fe"/>
</svg>
