<svg width="640" height="640" viewBox="0 0 640 640" fill="none" xmlns="http://www.w3.org/2000/svg">
<g clip-path="url(#clip0_912_7611)">
<path fill-rule="evenodd" clip-rule="evenodd" d="M565.035 323.046V323.046L563.452 325.268L561.933 327.458L560.479 329.619L559.092 331.753L557.772 333.863L556.518 335.952L555.332 338.021L554.211 340.074L553.156 342.113L552.165 344.14L551.236 346.158L550.367 348.168L549.556 350.174L548.801 352.177L548.099 354.178L547.447 356.18L546.842 358.184L546.281 360.191L545.761 362.203L545.279 364.221L544.831 366.245L544.415 368.278L544.027 370.318L543.664 372.368L543.323 374.427L543.002 376.497L542.697 378.577L542.406 380.668L542.126 382.77L541.856 384.883L541.593 387.007L541.335 389.144L541.082 391.292L540.831 393.453L540.582 395.626L540.334 397.813L540.088 400.014L539.842 402.229L539.597 404.459L539.353 406.705L539.109 408.968L538.865 411.248L538.621 413.546L538.376 415.862L538.13 418.198L537.882 420.552L537.631 422.927L537.377 425.322L537.118 427.737L536.853 430.173L536.582 432.63L536.304 435.108L536.015 437.606L535.717 440.125L535.406 442.664L535.081 445.223L534.74 447.8L534.382 450.396L534.004 453.01L533.605 455.639L533.182 458.283L532.733 460.941L532.256 463.611L531.749 466.291L531.208 468.978L530.633 471.672L530.02 474.369L529.367 477.068L528.671 479.764L527.931 482.456L527.144 485.141L526.308 487.815L525.42 490.475L524.479 493.118L523.482 495.74L522.428 498.338L521.315 500.907L520.141 503.444L518.905 505.946L517.605 508.408L516.241 510.825L514.811 513.195L513.314 515.513L511.75 517.776L510.119 519.978L508.421 522.117L506.654 524.188L504.82 526.187L502.919 528.112L500.952 529.958L498.919 531.721L496.821 533.399L494.661 534.989L492.438 536.487L490.156 537.891L487.815 539.198L485.419 540.406L482.969 541.513L480.468 542.517L477.919 543.418L475.324 544.213L472.686 544.902L470.009 545.486L467.296 545.963L464.551 546.335L461.777 546.601L458.977 546.764L456.155 546.823L453.315 546.783L450.46 546.643L447.595 546.408L444.723 546.08L441.847 545.662L438.972 545.157L436.1 544.57L433.234 543.903L430.378 543.16L427.535 542.344L424.707 541.459L421.896 540.507L419.105 539.493L416.336 538.419L413.591 537.289L410.872 536.107L408.18 534.875L405.518 533.598L402.886 532.278L400.287 530.919L397.721 529.524L395.188 528.097L392.691 526.641L390.23 525.159L387.805 523.654L385.417 522.129L383.067 520.586L380.753 519.029L378.478 517.46L376.24 515.881L374.039 514.295L371.876 512.705L369.751 511.114L367.662 509.524L365.61 507.938L363.593 506.36L361.612 504.792L359.666 503.237L357.753 501.698L355.873 500.178L354.025 498.68L352.208 497.207L350.42 495.762L348.659 494.347L346.925 492.966L345.216 491.621L343.531 490.315L341.866 489.05L340.221 487.829L338.594 486.655L336.981 485.528L335.383 484.453L333.795 483.43L332.216 482.462L330.643 481.55L329.075 480.695L327.508 479.9L325.94 479.165L324.369 478.491L322.792 477.88L321.206 477.331L319.61 476.845L318 476.422L316.375 476.062L314.731 475.765L313.066 475.53L311.378 475.357L309.665 475.245L307.924 475.192L306.154 475.198L304.351 475.26L302.516 475.377L300.644 475.547L298.735 475.769L296.788 476.039L294.8 476.355L292.77 476.716L290.698 477.117L288.581 477.557L286.419 478.033L284.211 478.541L281.957 479.079L279.655 479.643L277.306 480.23L274.909 480.837L272.464 481.46L269.972 482.096L267.431 482.743L264.842 483.395L262.207 484.051L259.525 484.706L256.796 485.357L254.023 486.001L251.205 486.634L248.344 487.254L245.441 487.857L242.497 488.44L239.513 489L236.491 489.534L233.431 490.038L230.337 490.511L227.209 490.95L224.049 491.351L220.859 491.712L217.641 492.032L214.395 492.308L211.123 492.539L207.826 492.724L204.505 492.861L201.161 492.951L197.794 492.993L194.404 492.986L190.992 492.93L187.558 492.825L184.103 492.671L180.626 492.468L177.128 492.215L173.609 491.912L170.07 491.56L166.51 491.156L162.931 490.702L159.333 490.196L155.718 489.637L152.086 489.024L148.44 488.356L144.781 487.632L141.112 486.849L137.436 486.007L133.754 485.103L130.07 484.137L126.386 483.107L122.706 482.011L119.031 480.848L115.366 479.618L111.713 478.318L108.075 476.949L104.456 475.508L100.858 473.996L97.2863 472.412L93.7427 470.755L90.2311 469.024L86.755 467.219L83.3179 465.34L79.9233 463.387L76.5747 461.36L73.2757 459.258L70.0299 457.083L66.8408 454.833L63.712 452.511L60.6469 450.116L57.6491 447.649L54.7221 445.111L51.8691 442.503L49.0935 439.827L46.3987 437.082L43.7878 434.272L41.2638 431.397L38.8298 428.459L36.4887 425.46L34.2432 422.401L32.0959 419.285L30.0495 416.114L28.1061 412.89L26.2681 409.615L24.5374 406.292L22.916 402.924L21.4056 399.512L20.0077 396.06L18.7237 392.571L17.5548 389.046L16.5019 385.49L15.5659 381.905L14.7474 378.294L14.047 374.66L13.4647 371.006L13.0009 367.334L12.6552 363.649L12.4275 359.953L12.3174 356.249L12.3241 352.541L12.447 348.83L12.6851 345.12L13.0373 341.415L13.5023 337.716L14.0787 334.027L14.7649 330.351L15.5593 326.689L16.46 323.046L17.4648 319.423L18.5718 315.823L19.7786 312.248L21.0828 308.7L22.4818 305.183L23.973 301.697L25.5536 298.246L27.2208 294.83L28.9717 291.452L30.8031 288.113L32.7119 284.815L34.6951 281.559L36.7492 278.347L38.8711 275.18L41.0571 272.059L43.3037 268.984L45.6067 265.957L47.962 262.977L50.3652 260.046L52.8117 257.163L55.2968 254.328L57.8156 251.54L60.3634 248.8L62.9353 246.107L65.5262 243.459L68.1312 240.855L70.7454 238.295L73.364 235.776L75.9822 233.296L78.5952 230.854L81.1984 228.448L83.7873 226.075L86.3575 223.733L88.9047 221.42L91.425 219.132L93.9143 216.866L96.3689 214.62L98.7853 212.391L101.16 210.175L103.491 207.969L105.775 205.77L108.011 203.576L110.196 201.381L112.329 199.185L114.409 196.983L116.436 194.773L118.409 192.552L120.328 190.317L122.194 188.067L124.007 185.797L125.769 183.507L127.48 181.195L129.142 178.857L130.757 176.494L132.328 174.102L133.855 171.682L135.343 169.232L136.793 166.751L138.209 164.239L139.594 161.695L140.95 159.119L142.282 156.511L143.592 153.872L144.884 151.202L146.162 148.501L147.429 145.772L148.689 143.014L149.945 140.229L151.201 137.419L152.461 134.585L153.728 131.73L155.005 128.854L156.296 125.961L157.605 123.052L158.934 120.13L160.286 117.198L161.664 114.257L163.071 111.31L164.51 108.361L165.983 105.411L167.492 102.464L169.04 99.5219L170.628 96.5878L172.258 93.6643L173.932 90.7541L175.651 87.86L177.417 84.9846L179.23 82.1305L181.092 79.3002L183.002 76.4961L184.963 73.7207L186.974 70.9762L189.035 68.265L191.146 65.589L193.308 62.9504L195.521 60.351L197.784 57.7928L200.096 55.2773L202.457 52.8061L204.867 50.3809L207.325 48.0028L209.83 45.6731L212.381 43.393L214.977 41.1634L217.617 38.9854L220.3 36.8596L223.025 34.7867L225.791 32.7675L228.596 30.8025L231.44 28.8921L234.32 27.0368L237.236 25.2368L240.187 23.4925L243.17 21.8043L246.186 20.1725L249.233 18.5979L252.309 17.0811L255.415 15.6229L258.548 14.2244L261.707 12.8867L264.893 11.6109L268.103 10.3984L271.337 9.25068L274.593 8.16931L277.871 7.15595L281.169 6.21236L284.487 5.34039L287.823 4.54194L291.175 3.81901L294.543 3.17361L297.925 2.6078L301.32 2.12366L304.726 1.72327L308.142 1.40871L311.566 1.182L314.995 1.04514L318.429 1L321.865 1.0483L325.301 1.19157L328.736 1.43119L332.166 1.76831L335.591 2.20386L339.006 2.73854L342.411 3.37282L345.802 4.10691L349.178 4.94073L352.536 5.87396L355.873 6.90597L359.188 8.03586L362.478 9.26241L365.74 10.5841L368.972 11.9992L372.173 13.5056L375.341 15.1009L378.472 16.7824L381.566 18.5472L384.621 20.392L387.636 22.3133L390.608 24.3072L393.536 26.3699L396.421 28.497L399.26 30.684L402.053 32.9263L404.801 35.2188L407.501 37.5565L410.155 39.9343L412.763 42.3466L415.325 44.7881L417.842 47.2532L420.315 49.7361L422.745 52.2313L425.134 54.733L427.483 57.2355L429.794 59.7332L432.069 62.2205L434.311 64.6918L436.522 67.1417L438.705 69.5649L440.863 71.9564L442.999 74.3112L445.116 76.6246L447.218 78.8921L449.308 81.1095L451.391 83.2728L453.469 85.3784L455.547 87.4229L457.629 89.4033L459.718 91.3169L461.818 93.1614L463.935 94.9349L466.07 96.6359L468.229 98.2631L470.414 99.8159L472.631 101.294L474.882 102.697L477.17 104.026L479.499 105.281L481.872 106.464L484.292 107.577L486.761 108.622L489.281 109.6L491.855 110.516L494.484 111.372L497.17 112.172L499.913 112.92L502.714 113.62L505.574 114.277L508.492 114.896L511.469 115.481L514.503 116.038L517.592 116.572L520.736 117.09L523.932 117.597L527.178 118.1L530.469 118.605L533.803 119.12L537.174 119.65L540.577 120.204L544.008 120.787L547.46 121.408L550.927 122.073L554.403 122.789L557.879 123.562L561.35 124.399L564.807 125.305L568.243 126.286L571.65 127.348L575.021 128.494L578.346 129.729L581.62 131.057L584.833 132.48L587.979 134.003L591.051 135.625L594.041 137.349L596.943 139.176L599.75 141.106L602.457 143.139L605.057 145.274L607.545 147.511L609.916 149.849L612.165 152.285L614.286 154.818L616.275 157.445L618.129 160.163L619.844 162.97L621.417 165.863L622.845 168.836L624.125 171.888L625.256 175.012L626.237 178.205L627.067 181.462L627.745 184.778L628.271 188.149L628.646 191.569L628.871 195.032L628.947 198.535L628.876 202.07L628.661 205.634L628.304 209.219L627.809 212.822L627.178 216.437L626.416 220.059L625.528 223.682L624.518 227.302L623.391 230.913L622.152 234.512L620.807 238.092L619.362 241.651L617.823 245.184L616.196 248.687L614.488 252.157L612.707 255.59L610.857 258.982L608.948 262.332L606.984 265.637L604.975 268.893L602.926 272.1L600.845 275.256L598.738 278.359L596.613 281.408L594.477 284.402L592.336 287.341L590.196 290.225L588.065 293.054L585.947 295.828L583.85 298.547L581.778 301.213L579.736 303.826L577.731 306.389L575.765 308.902L573.845 311.367L571.972 313.786L570.152 316.161L568.388 318.495L566.681 320.789L565.035 323.046" fill="#D3E7FE"/>
<path fill-rule="evenodd" clip-rule="evenodd" d="M565.035 323.046V323.046L563.452 325.268L561.933 327.458L560.479 329.619L559.092 331.753L557.772 333.863L556.518 335.952L555.332 338.021L554.211 340.074L553.156 342.113L552.165 344.14L551.236 346.158L550.367 348.168L549.556 350.174L548.801 352.177L548.099 354.178L547.447 356.18L546.842 358.184L546.281 360.191L545.761 362.203L545.279 364.221L544.831 366.245L544.415 368.278L544.027 370.318L543.664 372.368L543.323 374.427L543.002 376.497L542.697 378.577L542.406 380.668L542.126 382.77L541.856 384.883L541.593 387.007L541.335 389.144L541.082 391.292L540.831 393.453L540.582 395.626L540.334 397.813L540.088 400.014L539.842 402.229L539.597 404.459L539.353 406.705L539.109 408.968L538.865 411.248L538.621 413.546L538.376 415.862L538.13 418.198L537.882 420.552L537.631 422.927L537.377 425.322L537.118 427.737L536.853 430.173L536.582 432.63L536.304 435.108L536.015 437.606L535.717 440.125L535.406 442.664L535.081 445.223L534.74 447.8L534.382 450.396L534.004 453.01L533.605 455.639L533.182 458.283L532.733 460.941L532.256 463.611L531.749 466.291L531.208 468.978L530.633 471.672L530.02 474.369L529.367 477.068L528.671 479.764L527.931 482.456L527.144 485.141L526.308 487.815L525.42 490.475L524.479 493.118L523.482 495.74L522.428 498.338L521.315 500.907L520.141 503.444L518.905 505.946L517.605 508.408L516.241 510.825L514.811 513.195L513.314 515.513L511.75 517.776L510.119 519.978L508.421 522.117L506.654 524.188L504.82 526.187L502.919 528.112L500.952 529.958L498.919 531.721L496.821 533.399L494.661 534.989L492.438 536.487L490.156 537.891L487.815 539.198L485.419 540.406L482.969 541.513L480.468 542.517L477.919 543.418L475.324 544.213L472.686 544.902L470.009 545.486L467.296 545.963L464.551 546.335L461.777 546.601L458.977 546.764L456.155 546.823L453.315 546.783L450.46 546.643L447.595 546.408L444.723 546.08L441.847 545.662L438.972 545.157L436.1 544.57L433.234 543.903L430.378 543.16L427.535 542.344L424.707 541.459L421.896 540.507L419.105 539.493L416.336 538.419L413.591 537.289L410.872 536.107L408.18 534.875L405.518 533.598L402.886 532.278L400.287 530.919L397.721 529.524L395.188 528.097L392.691 526.641L390.23 525.159L387.805 523.654L385.417 522.129L383.067 520.586L380.753 519.029L378.478 517.46L376.24 515.881L374.039 514.295L371.876 512.705L369.751 511.114L367.662 509.524L365.61 507.938L363.593 506.36L361.612 504.792L359.666 503.237L357.753 501.698L355.873 500.178L354.025 498.68L352.208 497.207L350.42 495.762L348.659 494.347L346.925 492.966L345.216 491.621L343.531 490.315L341.866 489.05L340.221 487.829L338.594 486.655L336.981 485.528L335.383 484.453L333.795 483.43L332.216 482.462L330.643 481.55L329.075 480.695L327.508 479.9L325.94 479.165L324.369 478.491L322.792 477.88L321.206 477.331L319.61 476.845L318 476.422L316.375 476.062L314.731 475.765L313.066 475.53L311.378 475.357L309.665 475.245L307.924 475.192L306.154 475.198L304.351 475.26L302.516 475.377L300.644 475.547L298.735 475.769L296.788 476.039L294.8 476.355L292.77 476.716L290.698 477.117L288.581 477.557L286.419 478.033L284.211 478.541L281.957 479.079L279.655 479.643L277.306 480.23L274.909 480.837L272.464 481.46L269.972 482.096L267.431 482.743L264.842 483.395L262.207 484.051L259.525 484.706L256.796 485.357L254.023 486.001L251.205 486.634L248.344 487.254L245.441 487.857L242.497 488.44L239.513 489L236.491 489.534L233.431 490.038L230.337 490.511L227.209 490.95L224.049 491.351L220.859 491.712L217.641 492.032L214.395 492.308L211.123 492.539L207.826 492.724L204.505 492.861L201.161 492.951L197.794 492.993L194.404 492.986L190.992 492.93L187.558 492.825L184.103 492.671L180.626 492.468L177.128 492.215L173.609 491.912L170.07 491.56L166.51 491.156L162.931 490.702L159.333 490.196L155.718 489.637L152.086 489.024L148.44 488.356L144.781 487.632L141.112 486.849L137.436 486.007L133.754 485.103L130.07 484.137L126.386 483.107L122.706 482.011L119.031 480.848L115.366 479.618L111.713 478.318L108.075 476.949L104.456 475.508L100.858 473.996L97.2863 472.412L93.7427 470.755L90.2311 469.024L86.755 467.219L83.3179 465.34L79.9233 463.387L76.5747 461.36L73.2757 459.258L70.0299 457.083L66.8408 454.833L63.712 452.511L60.6469 450.116L57.6491 447.649L54.7221 445.111L51.8691 442.503L49.0935 439.827L46.3987 437.082L43.7878 434.272L41.2638 431.397L38.8298 428.459L36.4887 425.46L34.2432 422.401L32.0959 419.285L30.0495 416.114L28.1061 412.89L26.2681 409.615L24.5374 406.292L22.916 402.924L21.4056 399.512L20.0077 396.06L18.7237 392.571L17.5548 389.046L16.5019 385.49L15.5659 381.905L14.7474 378.294L14.047 374.66L13.4647 371.006L13.0009 367.334L12.6552 363.649L12.4275 359.953L12.3174 356.249L12.3241 352.541L12.447 348.83L12.6851 345.12L13.0373 341.415L13.5023 337.716L14.0787 334.027L14.7649 330.351L15.5593 326.689L16.46 323.046L17.4648 319.423L18.5718 315.823L19.7786 312.248L21.0828 308.7L22.4818 305.183L23.973 301.697L25.5536 298.246L27.2208 294.83L28.9717 291.452L30.8031 288.113L32.7119 284.815L34.6951 281.559L36.7492 278.347L38.8711 275.18L41.0571 272.059L43.3037 268.984L45.6067 265.957L47.962 262.977L50.3652 260.046L52.8117 257.163L55.2968 254.328L57.8156 251.54L60.3634 248.8L62.9353 246.107L65.5262 243.459L68.1312 240.855L70.7454 238.295L73.364 235.776L75.9822 233.296L78.5952 230.854L81.1984 228.448L83.7873 226.075L86.3575 223.733L88.9047 221.42L91.425 219.132L93.9143 216.866L96.3689 214.62L98.7853 212.391L101.16 210.175L103.491 207.969L105.775 205.77L108.011 203.576L110.196 201.381L112.329 199.185L114.409 196.983L116.436 194.773L118.409 192.552L120.328 190.317L122.194 188.067L124.007 185.797L125.769 183.507L127.48 181.195L129.142 178.857L130.757 176.494L132.328 174.102L133.855 171.682L135.343 169.232L136.793 166.751L138.209 164.239L139.594 161.695L140.95 159.119L142.282 156.511L143.592 153.872L144.884 151.202L146.162 148.501L147.429 145.772L148.689 143.014L149.945 140.229L151.201 137.419L152.461 134.585L153.728 131.73L155.005 128.854L156.296 125.961L157.605 123.052L158.934 120.13L160.286 117.198L161.664 114.257L163.071 111.31L164.51 108.361L165.983 105.411L167.492 102.464L169.04 99.5219L170.628 96.5878L172.258 93.6643L173.932 90.7541L175.651 87.86L177.417 84.9846L179.23 82.1305L181.092 79.3002L183.002 76.4961L184.963 73.7207L186.974 70.9762L189.035 68.265L191.146 65.589L193.308 62.9504L195.521 60.351L197.784 57.7928L200.096 55.2773L202.457 52.8061L204.867 50.3809L207.325 48.0028L209.83 45.6731L212.381 43.393L214.977 41.1634L217.617 38.9854L220.3 36.8596L223.025 34.7867L225.791 32.7675L228.596 30.8025L231.44 28.8921L234.32 27.0368L237.236 25.2368L240.187 23.4925L243.17 21.8043L246.186 20.1725L249.233 18.5979L252.309 17.0811L255.415 15.6229L258.548 14.2244L261.707 12.8867L264.893 11.6109L268.103 10.3984L271.337 9.25068L274.593 8.16931L277.871 7.15595L281.169 6.21236L284.487 5.34039L287.823 4.54194L291.175 3.81901L294.543 3.17361L297.925 2.6078L301.32 2.12366L304.726 1.72327L308.142 1.40871L311.566 1.182L314.995 1.04514L318.429 1L321.865 1.0483L325.301 1.19157L328.736 1.43119L332.166 1.76831L335.591 2.20386L339.006 2.73854L342.411 3.37282L345.802 4.10691L349.178 4.94073L352.536 5.87396L355.873 6.90597L359.188 8.03586L362.478 9.26241L365.74 10.5841L368.972 11.9992L372.173 13.5056L375.341 15.1009L378.472 16.7824L381.566 18.5472L384.621 20.392L387.636 22.3133L390.608 24.3072L393.536 26.3699L396.421 28.497L399.26 30.684L402.053 32.9263L404.801 35.2188L407.501 37.5565L410.155 39.9343L412.763 42.3466L415.325 44.7881L417.842 47.2532L420.315 49.7361L422.745 52.2313L425.134 54.733L427.483 57.2355L429.794 59.7332L432.069 62.2205L434.311 64.6918L436.522 67.1417L438.705 69.5649L440.863 71.9564L442.999 74.3112L445.116 76.6246L447.218 78.8921L449.308 81.1095L451.391 83.2728L453.469 85.3784L455.547 87.4229L457.629 89.4033L459.718 91.3169L461.818 93.1614L463.935 94.9349L466.07 96.6359L468.229 98.2631L470.414 99.8159L472.631 101.294L474.882 102.697L477.17 104.026L479.499 105.281L481.872 106.464L484.292 107.577L486.761 108.622L489.281 109.6L491.855 110.516L494.484 111.372L497.17 112.172L499.913 112.92L502.714 113.62L505.574 114.277L508.492 114.896L511.469 115.481L514.503 116.038L517.592 116.572L520.736 117.09L523.932 117.597L527.178 118.1L530.469 118.605L533.803 119.12L537.174 119.65L540.577 120.204L544.008 120.787L547.46 121.408L550.927 122.073L554.403 122.789L557.879 123.562L561.35 124.399L564.807 125.305L568.243 126.286L571.65 127.348L575.021 128.494L578.346 129.729L581.62 131.057L584.833 132.48L587.979 134.003L591.051 135.625L594.041 137.349L596.943 139.176L599.75 141.106L602.457 143.139L605.057 145.274L607.545 147.511L609.916 149.849L612.165 152.285L614.286 154.818L616.275 157.445L618.129 160.163L619.844 162.97L621.417 165.863L622.845 168.836L624.125 171.888L625.256 175.012L626.237 178.205L627.067 181.462L627.745 184.778L628.271 188.149L628.646 191.569L628.871 195.032L628.947 198.535L628.876 202.07L628.661 205.634L628.304 209.219L627.809 212.822L627.178 216.437L626.416 220.059L625.528 223.682L624.518 227.302L623.391 230.913L622.152 234.512L620.807 238.092L619.362 241.651L617.823 245.184L616.196 248.687L614.488 252.157L612.707 255.59L610.857 258.982L608.948 262.332L606.984 265.637L604.975 268.893L602.926 272.1L600.845 275.256L598.738 278.359L596.613 281.408L594.477 284.402L592.336 287.341L590.196 290.225L588.065 293.054L585.947 295.828L583.85 298.547L581.778 301.213L579.736 303.826L577.731 306.389L575.765 308.902L573.845 311.367L571.972 313.786L570.152 316.161L568.388 318.495L566.681 320.789L565.035 323.046" fill="#F3F5FC"/>
<path fill-rule="evenodd" clip-rule="evenodd" d="M565.035 323.046V323.046L563.452 325.268L561.933 327.458L560.479 329.619L559.092 331.753L557.772 333.863L556.518 335.952L555.332 338.021L554.211 340.074L553.156 342.113L552.165 344.14L551.236 346.158L550.367 348.168L549.556 350.174L548.801 352.177L548.099 354.178L547.447 356.18L546.842 358.184L546.281 360.191L545.761 362.203L545.279 364.221L544.831 366.245L544.415 368.278L544.027 370.318L543.664 372.368L543.323 374.427L543.002 376.497L542.697 378.577L542.406 380.668L542.126 382.77L541.856 384.883L541.593 387.007L541.335 389.144L541.082 391.292L540.831 393.453L540.582 395.626L540.334 397.813L540.088 400.014L539.842 402.229L539.597 404.459L539.353 406.705L539.109 408.968L538.865 411.248L538.621 413.546L538.376 415.862L538.13 418.198L537.882 420.552L537.631 422.927L537.377 425.322L537.118 427.737L536.853 430.173L536.582 432.63L536.304 435.108L536.015 437.606L535.717 440.125L535.406 442.664L535.081 445.223L534.74 447.8L534.382 450.396L534.004 453.01L533.605 455.639L533.182 458.283L532.733 460.941L532.256 463.611L531.749 466.291L531.208 468.978L530.633 471.672L530.02 474.369L529.367 477.068L528.671 479.764L527.931 482.456L527.144 485.141L526.308 487.815L525.42 490.475L524.479 493.118L523.482 495.74L522.428 498.338L521.315 500.907L520.141 503.444L518.905 505.946L517.605 508.408L516.241 510.825L514.811 513.195L513.314 515.513L511.75 517.776L510.119 519.978L508.421 522.117L506.654 524.188L504.82 526.187L502.919 528.112L500.952 529.958L498.919 531.721L496.821 533.399L494.661 534.989L492.438 536.487L490.156 537.891L487.815 539.198L485.419 540.406L482.969 541.513L480.468 542.517L477.919 543.418L475.324 544.213L472.686 544.902L470.009 545.486L467.296 545.963L464.551 546.335L461.777 546.601L458.977 546.764L456.155 546.823L453.315 546.783L450.46 546.643L447.595 546.408L444.723 546.08L441.847 545.662L438.972 545.157L436.1 544.57L433.234 543.903L430.378 543.16L427.535 542.344L424.707 541.459L421.896 540.507L419.105 539.493L416.336 538.419L413.591 537.289L410.872 536.107L408.18 534.875L405.518 533.598L402.886 532.278L400.287 530.919L397.721 529.524L395.188 528.097L392.691 526.641L390.23 525.159L387.805 523.654L385.417 522.129L383.067 520.586L380.753 519.029L378.478 517.46L376.24 515.881L374.039 514.295L371.876 512.705L369.751 511.114L367.662 509.524L365.61 507.938L363.593 506.36L361.612 504.792L359.666 503.237L357.753 501.698L355.873 500.178L354.025 498.68L352.208 497.207L350.42 495.762L348.659 494.347L346.925 492.966L345.216 491.621L343.531 490.315L341.866 489.05L340.221 487.829L338.594 486.655L336.981 485.528L335.383 484.453L333.795 483.43L332.216 482.462L330.643 481.55L329.075 480.695L327.508 479.9L325.94 479.165L324.369 478.491L322.792 477.88L321.206 477.331L319.61 476.845L318 476.422L316.375 476.062L314.731 475.765L313.066 475.53L311.378 475.357L309.665 475.245L307.924 475.192L306.154 475.198L304.351 475.26L302.516 475.377L300.644 475.547L298.735 475.769L296.788 476.039L294.8 476.355L292.77 476.716L290.698 477.117L288.581 477.557L286.419 478.033L284.211 478.541L281.957 479.079L279.655 479.643L277.306 480.23L274.909 480.837L272.464 481.46L269.972 482.096L267.431 482.743L264.842 483.395L262.207 484.051L259.525 484.706L256.796 485.357L254.023 486.001L251.205 486.634L248.344 487.254L245.441 487.857L242.497 488.44L239.513 489L236.491 489.534L233.431 490.038L230.337 490.511L227.209 490.95L224.049 491.351L220.859 491.712L217.641 492.032L214.395 492.308L211.123 492.539L207.826 492.724L204.505 492.861L201.161 492.951L197.794 492.993L194.404 492.986L190.992 492.93L187.558 492.825L184.103 492.671L180.626 492.468L177.128 492.215L173.609 491.912L170.07 491.56L166.51 491.156L162.931 490.702L159.333 490.196L155.718 489.637L152.086 489.024L148.44 488.356L144.781 487.632L141.112 486.849L137.436 486.007L133.754 485.103L130.07 484.137L126.386 483.107L122.706 482.011L119.031 480.848L115.366 479.618L111.713 478.318L108.075 476.949L104.456 475.508L100.858 473.996L97.2863 472.412L93.7427 470.755L90.2311 469.024L86.755 467.219L83.3179 465.34L79.9233 463.387L76.5747 461.36L73.2757 459.258L70.0299 457.083L66.8408 454.833L63.712 452.511L60.6469 450.116L57.6491 447.649L54.7221 445.111L51.8691 442.503L49.0935 439.827L46.3987 437.082L43.7878 434.272L41.2638 431.397L38.8298 428.459L36.4887 425.46L34.2432 422.401L32.0959 419.285L30.0495 416.114L28.1061 412.89L26.2681 409.615L24.5374 406.292L22.916 402.924L21.4056 399.512L20.0077 396.06L18.7237 392.571L17.5548 389.046L16.5019 385.49L15.5659 381.905L14.7474 378.294L14.047 374.66L13.4647 371.006L13.0009 367.334L12.6552 363.649L12.4275 359.953L12.3174 356.249L12.3241 352.541L12.447 348.83L12.6851 345.12L13.0373 341.415L13.5023 337.716L14.0787 334.027L14.7649 330.351L15.5593 326.689L16.46 323.046L17.4648 319.423L18.5718 315.823L19.7786 312.248L21.0828 308.7L22.4818 305.183L23.973 301.697L25.5536 298.246L27.2208 294.83L28.9717 291.452L30.8031 288.113L32.7119 284.815L34.6951 281.559L36.7492 278.347L38.8711 275.18L41.0571 272.059L43.3037 268.984L45.6067 265.957L47.962 262.977L50.3652 260.046L52.8117 257.163L55.2968 254.328L57.8156 251.54L60.3634 248.8L62.9353 246.107L65.5262 243.459L68.1312 240.855L70.7454 238.295L73.364 235.776L75.9822 233.296L78.5952 230.854L81.1984 228.448L83.7873 226.075L86.3575 223.733L88.9047 221.42L91.425 219.132L93.9143 216.866L96.3689 214.62L98.7853 212.391L101.16 210.175L103.491 207.969L105.775 205.77L108.011 203.576L110.196 201.381L112.329 199.185L114.409 196.983L116.436 194.773L118.409 192.552L120.328 190.317L122.194 188.067L124.007 185.797L125.769 183.507L127.48 181.195L129.142 178.857L130.757 176.494L132.328 174.102L133.855 171.682L135.343 169.232L136.793 166.751L138.209 164.239L139.594 161.695L140.95 159.119L142.282 156.511L143.592 153.872L144.884 151.202L146.162 148.501L147.429 145.772L148.689 143.014L149.945 140.229L151.201 137.419L152.461 134.585L153.728 131.73L155.005 128.854L156.296 125.961L157.605 123.052L158.934 120.13L160.286 117.198L161.664 114.257L163.071 111.31L164.51 108.361L165.983 105.411L167.492 102.464L169.04 99.5219L170.628 96.5878L172.258 93.6643L173.932 90.7541L175.651 87.86L177.417 84.9846L179.23 82.1305L181.092 79.3002L183.002 76.4961L184.963 73.7207L186.974 70.9762L189.035 68.265L191.146 65.589L193.308 62.9504L195.521 60.351L197.784 57.7928L200.096 55.2773L202.457 52.8061L204.867 50.3809L207.325 48.0028L209.83 45.6731L212.381 43.393L214.977 41.1634L217.617 38.9854L220.3 36.8596L223.025 34.7867L225.791 32.7675L228.596 30.8025L231.44 28.8921L234.32 27.0368L237.236 25.2368L240.187 23.4925L243.17 21.8043L246.186 20.1725L249.233 18.5979L252.309 17.0811L255.415 15.6229L258.548 14.2244L261.707 12.8867L264.893 11.6109L268.103 10.3984L271.337 9.25068L274.593 8.16931L277.871 7.15595L281.169 6.21236L284.487 5.34039L287.823 4.54194L291.175 3.81901L294.543 3.17361L297.925 2.6078L301.32 2.12366L304.726 1.72327L308.142 1.40871L311.566 1.182L314.995 1.04514L318.429 1L321.865 1.0483L325.301 1.19157L328.736 1.43119L332.166 1.76831L335.591 2.20386L339.006 2.73854L342.411 3.37282L345.802 4.10691L349.178 4.94073L352.536 5.87396L355.873 6.90597L359.188 8.03586L362.478 9.26241L365.74 10.5841L368.972 11.9992L372.173 13.5056L375.341 15.1009L378.472 16.7824L381.566 18.5472L384.621 20.392L387.636 22.3133L390.608 24.3072L393.536 26.3699L396.421 28.497L399.26 30.684L402.053 32.9263L404.801 35.2188L407.501 37.5565L410.155 39.9343L412.763 42.3466L415.325 44.7881L417.842 47.2532L420.315 49.7361L422.745 52.2313L425.134 54.733L427.483 57.2355L429.794 59.7332L432.069 62.2205L434.311 64.6918L436.522 67.1417L438.705 69.5649L440.863 71.9564L442.999 74.3112L445.116 76.6246L447.218 78.8921L449.308 81.1095L451.391 83.2728L453.469 85.3784L455.547 87.4229L457.629 89.4033L459.718 91.3169L461.818 93.1614L463.935 94.9349L466.07 96.6359L468.229 98.2631L470.414 99.8159L472.631 101.294L474.882 102.697L477.17 104.026L479.499 105.281L481.872 106.464L484.292 107.577L486.761 108.622L489.281 109.6L491.855 110.516L494.484 111.372L497.17 112.172L499.913 112.92L502.714 113.62L505.574 114.277L508.492 114.896L511.469 115.481L514.503 116.038L517.592 116.572L520.736 117.09L523.932 117.597L527.178 118.1L530.469 118.605L533.803 119.12L537.174 119.65L540.577 120.204L544.008 120.787L547.46 121.408L550.927 122.073L554.403 122.789L557.879 123.562L561.35 124.399L564.807 125.305L568.243 126.286L571.65 127.348L575.021 128.494L578.346 129.729L581.62 131.057L584.833 132.48L587.979 134.003L591.051 135.625L594.041 137.349L596.943 139.176L599.75 141.106L602.457 143.139L605.057 145.274L607.545 147.511L609.916 149.849L612.165 152.285L614.286 154.818L616.275 157.445L618.129 160.163L619.844 162.97L621.417 165.863L622.845 168.836L624.125 171.888L625.256 175.012L626.237 178.205L627.067 181.462L627.745 184.778L628.271 188.149L628.646 191.569L628.871 195.032L628.947 198.535L628.876 202.07L628.661 205.634L628.304 209.219L627.809 212.822L627.178 216.437L626.416 220.059L625.528 223.682L624.518 227.302L623.391 230.913L622.152 234.512L620.807 238.092L619.362 241.651L617.823 245.184L616.196 248.687L614.488 252.157L612.707 255.59L610.857 258.982L608.948 262.332L606.984 265.637L604.975 268.893L602.926 272.1L600.845 275.256L598.738 278.359L596.613 281.408L594.477 284.402L592.336 287.341L590.196 290.225L588.065 293.054L585.947 295.828L583.85 298.547L581.778 301.213L579.736 303.826L577.731 306.389L575.765 308.902L573.845 311.367L571.972 313.786L570.152 316.161L568.388 318.495L566.681 320.789L565.035 323.046" fill="#D3E7FE"/>
<path fill-rule="evenodd" clip-rule="evenodd" d="M95.36 430.072V430.072L96.2093 428.13L97.0149 426.222L97.7753 424.348L98.4895 422.504L99.1566 420.69L99.7763 418.902L100.348 417.14L100.872 415.4L101.349 413.682L101.779 411.982L102.164 410.3L102.503 408.632L102.799 406.978L103.054 405.335L103.268 403.701L103.444 402.075L103.584 400.454L103.69 398.838L103.765 397.226L103.809 395.614L103.826 394.003L103.818 392.391L103.787 390.778L103.736 389.161L103.666 387.54L103.58 385.915L103.48 384.285L103.367 382.648L103.244 381.005L103.112 379.355L102.973 377.697L102.827 376.031L102.677 374.357L102.522 372.673L102.364 370.981L102.203 369.278L102.039 367.565L101.872 365.841L101.702 364.106L101.529 362.359L101.353 360.599L101.175 358.826L100.993 357.039L100.809 355.239L100.624 353.423L100.436 351.593L100.248 349.747L100.059 347.885L99.8695 346.007L99.6815 344.112L99.4951 342.2L99.3114 340.271L99.1315 338.325L98.9564 336.362L98.7873 334.381L98.6258 332.383L98.4731 330.369L98.3308 328.337L98.2006 326.29L98.0842 324.226L97.9835 322.148L97.9003 320.055L97.8366 317.948L97.7945 315.829L97.7761 313.699L97.7835 311.559L97.8189 309.41L97.8846 307.254L97.9827 305.092L98.1156 302.927L98.2854 300.76L98.4943 298.593L98.7446 296.429L99.0383 294.269L99.3775 292.116L99.7643 289.973L100.201 287.842L100.688 285.726L101.229 283.627L101.824 281.548L102.475 279.492L103.185 277.462L103.953 275.461L104.78 273.492L105.669 271.558L106.62 269.661L107.632 267.805L108.708 265.993L109.846 264.227L111.048 262.51L112.312 260.846L113.64 259.236L115.029 257.684L116.48 256.191L117.992 254.761L119.563 253.395L121.193 252.095L122.88 250.864L124.621 249.702L126.417 248.612L128.264 247.595L130.159 246.652L132.102 245.782L134.089 244.988L136.118 244.27L138.186 243.626L140.29 243.058L142.426 242.564L144.593 242.143L146.787 241.796L149.003 241.519L151.24 241.313L153.494 241.174L155.762 241.1L158.04 241.091L160.326 241.142L162.617 241.254L164.91 241.423L167.203 241.647L169.493 241.924L171.778 242.252L174.056 242.629L176.324 243.052L178.581 243.519L180.825 244.028L183.054 244.577L185.266 245.163L187.461 245.783L189.635 246.436L191.789 247.119L193.921 247.83L196.03 248.566L198.115 249.325L200.175 250.106L202.209 250.906L204.217 251.722L206.199 252.555L208.153 253.4L210.08 254.256L211.979 255.122L213.85 255.995L215.693 256.872L217.507 257.752L219.293 258.632L221.051 259.51L222.779 260.383L224.48 261.25L226.153 262.107L227.798 262.953L229.415 263.784L231.006 264.599L232.571 265.396L234.11 266.171L235.625 266.922L237.116 267.648L238.584 268.345L240.03 269.012L241.456 269.647L242.862 270.248L244.25 270.812L245.621 271.337L246.977 271.823L248.319 272.267L249.648 272.668L250.967 273.023L252.277 273.333L253.579 273.596L254.877 273.811L256.17 273.976L257.462 274.092L258.754 274.158L260.048 274.173L261.346 274.138L262.65 274.052L263.961 273.915L265.282 273.729L266.615 273.492L267.96 273.207L269.321 272.873L270.699 272.492L272.095 272.065L273.511 271.594L274.95 271.079L276.411 270.522L277.897 269.925L279.41 269.291L280.949 268.619L282.518 267.914L284.116 267.177L285.744 266.41L287.405 265.615L289.098 264.795L290.824 263.953L292.584 263.09L294.378 262.21L296.208 261.315L298.072 260.407L299.972 259.49L301.908 258.565L303.879 257.636L305.885 256.706L307.927 255.776L310.004 254.85L312.116 253.93L314.263 253.019L316.443 252.119L318.656 251.233L320.902 250.363L323.18 249.511L325.489 248.681L327.829 247.874L330.197 247.092L332.594 246.337L335.019 245.612L337.471 244.916L339.949 244.252L342.453 243.619L344.982 243.019L347.537 242.453L350.116 241.919L352.72 241.42L355.348 240.954L358.001 240.522L360.678 240.124L363.379 239.76L366.104 239.431L368.853 239.137L371.624 238.878L374.419 238.655L377.237 238.469L380.076 238.319L382.936 238.208L385.816 238.137L388.715 238.106L391.63 238.119L394.561 238.175L397.506 238.277L400.462 238.427L403.429 238.625L406.403 238.874L409.384 239.174L412.368 239.528L415.354 239.936L418.34 240.399L421.323 240.92L424.301 241.498L427.271 242.135L430.231 242.833L433.178 243.591L436.111 244.412L439.025 245.294L441.919 246.241L444.79 247.251L447.635 248.325L450.451 249.464L453.236 250.668L455.987 251.937L458.701 253.272L461.375 254.672L464.007 256.137L466.593 257.667L469.132 259.262L471.62 260.921L474.055 262.644L476.434 264.43L478.755 266.277L481.015 268.187L483.211 270.156L485.342 272.185L487.405 274.272L489.398 276.415L491.32 278.614L493.167 280.866L494.938 283.171L496.632 285.526L498.247 287.929L499.781 290.379L501.233 292.874L502.602 295.412L503.886 297.99L505.086 300.606L506.199 303.259L507.226 305.946L508.165 308.665L509.017 311.413L509.78 314.188L510.456 316.987L511.043 319.809L511.542 322.651L511.954 325.511L512.278 328.385L512.515 331.272L512.666 334.17L512.731 337.075L512.712 339.986L512.609 342.901L512.424 345.816L512.157 348.73L511.81 351.641L511.385 354.546L510.883 357.444L510.305 360.332L509.654 363.209L508.932 366.072L508.14 368.919L507.28 371.75L506.355 374.561L505.367 377.353L504.318 380.122L503.21 382.869L502.046 385.59L500.828 388.286L499.56 390.954L498.245 393.595L496.885 396.206L495.485 398.788L494.047 401.339L492.577 403.859L491.077 406.348L489.551 408.806L488.003 411.231L486.438 413.626L484.858 415.989L483.269 418.321L481.674 420.623L480.076 422.895L478.481 425.139L476.891 427.355L475.31 429.545L473.742 431.71L472.191 433.85L470.659 435.969L469.151 438.067L467.669 440.147L466.217 442.21L464.796 444.258L463.41 446.293L462.061 448.318L460.749 450.334L459.478 452.344L458.247 454.349L457.059 456.352L455.913 458.355L454.81 460.359L453.75 462.368L452.734 464.382L451.76 466.404L450.828 468.435L449.937 470.477L449.086 472.531L448.273 474.599L447.498 476.683L446.758 478.783L446.051 480.901L445.375 483.037L444.729 485.192L444.109 487.366L443.512 489.561L442.937 491.777L442.381 494.013L441.841 496.27L441.313 498.548L440.796 500.846L440.285 503.163L439.778 505.5L439.273 507.856L438.765 510.229L438.253 512.619L437.733 515.025L437.203 517.445L436.659 519.879L436.099 522.324L435.52 524.78L434.921 527.245L434.297 529.717L433.648 532.194L432.971 534.676L432.264 537.16L431.525 539.644L430.752 542.126L429.944 544.606L429.098 547.08L428.215 549.548L427.292 552.007L426.328 554.455L425.323 556.892L424.275 559.314L423.184 561.721L422.049 564.111L420.871 566.482L419.648 568.832L418.38 571.161L417.068 573.466L415.711 575.747L414.31 578.002L412.864 580.23L411.374 582.429L409.841 584.599L408.265 586.739L406.647 588.847L404.987 590.923L403.285 592.966L401.544 594.976L399.763 596.951L397.943 598.892L396.086 600.797L394.191 602.665L392.261 604.498L390.295 606.293L388.296 608.052L386.262 609.772L384.197 611.454L382.099 613.096L379.97 614.699L377.81 616.26L375.621 617.78L373.402 619.257L371.154 620.689L368.878 622.076L366.574 623.416L364.242 624.707L361.884 625.949L359.5 627.14L357.091 628.277L354.656 629.36L352.197 630.386L349.715 631.353L347.21 632.261L344.684 633.107L342.136 633.889L339.568 634.605L336.982 635.254L334.377 635.834L331.756 636.344L329.119 636.781L326.469 637.144L323.805 637.433L321.131 637.646L318.448 637.782L315.757 637.84L313.06 637.821L310.359 637.723L307.656 637.547L304.953 637.292L302.252 636.96L299.554 636.55L296.861 636.063L294.176 635.5L291.501 634.863L288.837 634.153L286.186 633.371L283.551 632.521L280.933 631.603L278.333 630.621L275.754 629.576L273.197 628.473L270.663 627.313L268.154 626.101L265.672 624.839L263.216 623.532L260.788 622.183L258.39 620.797L256.021 619.376L253.682 617.926L251.374 616.451L249.096 614.956L246.849 613.444L244.633 611.921L242.446 610.391L240.29 608.858L238.162 607.328L236.062 605.804L233.989 604.292L231.941 602.796L229.918 601.32L227.917 599.868L225.937 598.445L223.976 597.054L222.032 595.7L220.102 594.386L218.185 593.114L216.278 591.889L214.378 590.714L212.484 589.59L210.591 588.521L208.698 587.509L206.803 586.554L204.901 585.659L202.99 584.826L201.068 584.054L199.132 583.344L197.179 582.697L195.207 582.113L193.213 581.59L191.195 581.128L189.15 580.726L187.077 580.382L184.973 580.094L182.837 579.861L180.666 579.679L178.46 579.546L176.218 579.459L173.937 579.413L171.619 579.407L169.261 579.435L166.865 579.493L164.43 579.577L161.955 579.683L159.443 579.805L156.895 579.939L154.31 580.077L151.693 580.216L149.044 580.348L146.367 580.468L143.664 580.569L140.939 580.645L138.196 580.691L135.438 580.698L132.671 580.663L129.897 580.578L127.123 580.438L124.353 580.238L121.592 579.972L118.845 579.636L116.118 579.225L113.416 578.735L110.744 578.163L108.108 577.505L105.513 576.759L102.963 575.922L100.464 574.994L98.0208 573.972L95.6372 572.856L93.3182 571.645L91.0682 570.339L88.8915 568.938L86.7923 567.442L84.7743 565.853L82.8414 564.171L80.9969 562.398L79.244 560.535L77.5858 558.585L76.0249 556.55L74.5635 554.433L73.204 552.236L71.9478 549.964L70.7965 547.618L69.7511 545.203L68.8124 542.723L67.9808 540.182L67.2565 537.583L66.6391 534.931L66.128 532.231L65.7224 529.486L65.4211 526.702L65.2224 523.883L65.1245 521.033L65.1253 518.158L65.2222 515.261L65.4124 512.347L65.6929 509.421L66.0604 506.487L66.5113 503.55L67.0419 500.613L67.648 497.682L68.3256 494.759L69.0701 491.848L69.877 488.954L70.7416 486.08L71.6591 483.229L72.6244 480.403L73.6327 477.607L74.6788 474.842L75.7577 472.111L76.8642 469.416L77.9933 466.76L79.1398 464.143L80.2988 461.567L81.4654 459.033L82.6348 456.543L83.8022 454.097L84.9632 451.695L86.1134 449.338L87.2486 447.026L88.3648 444.758L89.4582 442.535L90.5252 440.354L91.5628 438.217L92.5676 436.121L93.5371 434.066L94.4686 432.05L95.36 430.072" fill="#D3E7FE"/>
<path fill-rule="evenodd" clip-rule="evenodd" d="M95.36 430.072V430.072L96.2093 428.13L97.0149 426.222L97.7753 424.348L98.4895 422.504L99.1566 420.69L99.7763 418.902L100.348 417.14L100.872 415.4L101.349 413.682L101.779 411.982L102.164 410.3L102.503 408.632L102.799 406.978L103.054 405.335L103.268 403.701L103.444 402.075L103.584 400.454L103.69 398.838L103.765 397.226L103.809 395.614L103.826 394.003L103.818 392.391L103.787 390.778L103.736 389.161L103.666 387.54L103.58 385.915L103.48 384.285L103.367 382.648L103.244 381.005L103.112 379.355L102.973 377.697L102.827 376.031L102.677 374.357L102.522 372.673L102.364 370.981L102.203 369.278L102.039 367.565L101.872 365.841L101.702 364.106L101.529 362.359L101.353 360.599L101.175 358.826L100.993 357.039L100.809 355.239L100.624 353.423L100.436 351.593L100.248 349.747L100.059 347.885L99.8695 346.007L99.6815 344.112L99.4951 342.2L99.3114 340.271L99.1315 338.325L98.9564 336.362L98.7873 334.381L98.6258 332.383L98.4731 330.369L98.3308 328.337L98.2006 326.29L98.0842 324.226L97.9835 322.148L97.9003 320.055L97.8366 317.948L97.7945 315.829L97.7761 313.699L97.7835 311.559L97.8189 309.41L97.8846 307.254L97.9827 305.092L98.1156 302.927L98.2854 300.76L98.4943 298.593L98.7446 296.429L99.0383 294.269L99.3775 292.116L99.7643 289.973L100.201 287.842L100.688 285.726L101.229 283.627L101.824 281.548L102.475 279.492L103.185 277.462L103.953 275.461L104.78 273.492L105.669 271.558L106.62 269.661L107.632 267.805L108.708 265.993L109.846 264.227L111.048 262.51L112.312 260.846L113.64 259.236L115.029 257.684L116.48 256.191L117.992 254.761L119.563 253.395L121.193 252.095L122.88 250.864L124.621 249.702L126.417 248.612L128.264 247.595L130.159 246.652L132.102 245.782L134.089 244.988L136.118 244.27L138.186 243.626L140.29 243.058L142.426 242.564L144.593 242.143L146.787 241.796L149.003 241.519L151.24 241.313L153.494 241.174L155.762 241.1L158.04 241.091L160.326 241.142L162.617 241.254L164.91 241.423L167.203 241.647L169.493 241.924L171.778 242.252L174.056 242.629L176.324 243.052L178.581 243.519L180.825 244.028L183.054 244.577L185.266 245.163L187.461 245.783L189.635 246.436L191.789 247.119L193.921 247.83L196.03 248.566L198.115 249.325L200.175 250.106L202.209 250.906L204.217 251.722L206.199 252.555L208.153 253.4L210.08 254.256L211.979 255.122L213.85 255.995L215.693 256.872L217.507 257.752L219.293 258.632L221.051 259.51L222.779 260.383L224.48 261.25L226.153 262.107L227.798 262.953L229.415 263.784L231.006 264.599L232.571 265.396L234.11 266.171L235.625 266.922L237.116 267.648L238.584 268.345L240.03 269.012L241.456 269.647L242.862 270.248L244.25 270.812L245.621 271.337L246.977 271.823L248.319 272.267L249.648 272.668L250.967 273.023L252.277 273.333L253.579 273.596L254.877 273.811L256.17 273.976L257.462 274.092L258.754 274.158L260.048 274.173L261.346 274.138L262.65 274.052L263.961 273.915L265.282 273.729L266.615 273.492L267.96 273.207L269.321 272.873L270.699 272.492L272.095 272.065L273.511 271.594L274.95 271.079L276.411 270.522L277.897 269.925L279.41 269.291L280.949 268.619L282.518 267.914L284.116 267.177L285.744 266.41L287.405 265.615L289.098 264.795L290.824 263.953L292.584 263.09L294.378 262.21L296.208 261.315L298.072 260.407L299.972 259.49L301.908 258.565L303.879 257.636L305.885 256.706L307.927 255.776L310.004 254.85L312.116 253.93L314.263 253.019L316.443 252.119L318.656 251.233L320.902 250.363L323.18 249.511L325.489 248.681L327.829 247.874L330.197 247.092L332.594 246.337L335.019 245.612L337.471 244.916L339.949 244.252L342.453 243.619L344.982 243.019L347.537 242.453L350.116 241.919L352.72 241.42L355.348 240.954L358.001 240.522L360.678 240.124L363.379 239.76L366.104 239.431L368.853 239.137L371.624 238.878L374.419 238.655L377.237 238.469L380.076 238.319L382.936 238.208L385.816 238.137L388.715 238.106L391.63 238.119L394.561 238.175L397.506 238.277L400.462 238.427L403.429 238.625L406.403 238.874L409.384 239.174L412.368 239.528L415.354 239.936L418.34 240.399L421.323 240.92L424.301 241.498L427.271 242.135L430.231 242.833L433.178 243.591L436.111 244.412L439.025 245.294L441.919 246.241L444.79 247.251L447.635 248.325L450.451 249.464L453.236 250.668L455.987 251.937L458.701 253.272L461.375 254.672L464.007 256.137L466.593 257.667L469.132 259.262L471.62 260.921L474.055 262.644L476.434 264.43L478.755 266.277L481.015 268.187L483.211 270.156L485.342 272.185L487.405 274.272L489.398 276.415L491.32 278.614L493.167 280.866L494.938 283.171L496.632 285.526L498.247 287.929L499.781 290.379L501.233 292.874L502.602 295.412L503.886 297.99L505.086 300.606L506.199 303.259L507.226 305.946L508.165 308.665L509.017 311.413L509.78 314.188L510.456 316.987L511.043 319.809L511.542 322.651L511.954 325.511L512.278 328.385L512.515 331.272L512.666 334.17L512.731 337.075L512.712 339.986L512.609 342.901L512.424 345.816L512.157 348.73L511.81 351.641L511.385 354.546L510.883 357.444L510.305 360.332L509.654 363.209L508.932 366.072L508.14 368.919L507.28 371.75L506.355 374.561L505.367 377.353L504.318 380.122L503.21 382.869L502.046 385.59L500.828 388.286L499.56 390.954L498.245 393.595L496.885 396.206L495.485 398.788L494.047 401.339L492.577 403.859L491.077 406.348L489.551 408.806L488.003 411.231L486.438 413.626L484.858 415.989L483.269 418.321L481.674 420.623L480.076 422.895L478.481 425.139L476.891 427.355L475.31 429.545L473.742 431.71L472.191 433.85L470.659 435.969L469.151 438.067L467.669 440.147L466.217 442.21L464.796 444.258L463.41 446.293L462.061 448.318L460.749 450.334L459.478 452.344L458.247 454.349L457.059 456.352L455.913 458.355L454.81 460.359L453.75 462.368L452.734 464.382L451.76 466.404L450.828 468.435L449.937 470.477L449.086 472.531L448.273 474.599L447.498 476.683L446.758 478.783L446.051 480.901L445.375 483.037L444.729 485.192L444.109 487.366L443.512 489.561L442.937 491.777L442.381 494.013L441.841 496.27L441.313 498.548L440.796 500.846L440.285 503.163L439.778 505.5L439.273 507.856L438.765 510.229L438.253 512.619L437.733 515.025L437.203 517.445L436.659 519.879L436.099 522.324L435.52 524.78L434.921 527.245L434.297 529.717L433.648 532.194L432.971 534.676L432.264 537.16L431.525 539.644L430.752 542.126L429.944 544.606L429.098 547.08L428.215 549.548L427.292 552.007L426.328 554.455L425.323 556.892L424.275 559.314L423.184 561.721L422.049 564.111L420.871 566.482L419.648 568.832L418.38 571.161L417.068 573.466L415.711 575.747L414.31 578.002L412.864 580.23L411.374 582.429L409.841 584.599L408.265 586.739L406.647 588.847L404.987 590.923L403.285 592.966L401.544 594.976L399.763 596.951L397.943 598.892L396.086 600.797L394.191 602.665L392.261 604.498L390.295 606.293L388.296 608.052L386.262 609.772L384.197 611.454L382.099 613.096L379.97 614.699L377.81 616.26L375.621 617.78L373.402 619.257L371.154 620.689L368.878 622.076L366.574 623.416L364.242 624.707L361.884 625.949L359.5 627.14L357.091 628.277L354.656 629.36L352.197 630.386L349.715 631.353L347.21 632.261L344.684 633.107L342.136 633.889L339.568 634.605L336.982 635.254L334.377 635.834L331.756 636.344L329.119 636.781L326.469 637.144L323.805 637.433L321.131 637.646L318.448 637.782L315.757 637.84L313.06 637.821L310.359 637.723L307.656 637.547L304.953 637.292L302.252 636.96L299.554 636.55L296.861 636.063L294.176 635.5L291.501 634.863L288.837 634.153L286.186 633.371L283.551 632.521L280.933 631.603L278.333 630.621L275.754 629.576L273.197 628.473L270.663 627.313L268.154 626.101L265.672 624.839L263.216 623.532L260.788 622.183L258.39 620.797L256.021 619.376L253.682 617.926L251.374 616.451L249.096 614.956L246.849 613.444L244.633 611.921L242.446 610.391L240.29 608.858L238.162 607.328L236.062 605.804L233.989 604.292L231.941 602.796L229.918 601.32L227.917 599.868L225.937 598.445L223.976 597.054L222.032 595.7L220.102 594.386L218.185 593.114L216.278 591.889L214.378 590.714L212.484 589.59L210.591 588.521L208.698 587.509L206.803 586.554L204.901 585.659L202.99 584.826L201.068 584.054L199.132 583.344L197.179 582.697L195.207 582.113L193.213 581.59L191.195 581.128L189.15 580.726L187.077 580.382L184.973 580.094L182.837 579.861L180.666 579.679L178.46 579.546L176.218 579.459L173.937 579.413L171.619 579.407L169.261 579.435L166.865 579.493L164.43 579.577L161.955 579.683L159.443 579.805L156.895 579.939L154.31 580.077L151.693 580.216L149.044 580.348L146.367 580.468L143.664 580.569L140.939 580.645L138.196 580.691L135.438 580.698L132.671 580.663L129.897 580.578L127.123 580.438L124.353 580.238L121.592 579.972L118.845 579.636L116.118 579.225L113.416 578.735L110.744 578.163L108.108 577.505L105.513 576.759L102.963 575.922L100.464 574.994L98.0208 573.972L95.6372 572.856L93.3182 571.645L91.0682 570.339L88.8915 568.938L86.7923 567.442L84.7743 565.853L82.8414 564.171L80.9969 562.398L79.244 560.535L77.5858 558.585L76.0249 556.55L74.5635 554.433L73.204 552.236L71.9478 549.964L70.7965 547.618L69.7511 545.203L68.8124 542.723L67.9808 540.182L67.2565 537.583L66.6391 534.931L66.128 532.231L65.7224 529.486L65.4211 526.702L65.2224 523.883L65.1245 521.033L65.1253 518.158L65.2222 515.261L65.4124 512.347L65.6929 509.421L66.0604 506.487L66.5113 503.55L67.0419 500.613L67.648 497.682L68.3256 494.759L69.0701 491.848L69.877 488.954L70.7416 486.08L71.6591 483.229L72.6244 480.403L73.6327 477.607L74.6788 474.842L75.7577 472.111L76.8642 469.416L77.9933 466.76L79.1398 464.143L80.2988 461.567L81.4654 459.033L82.6348 456.543L83.8022 454.097L84.9632 451.695L86.1134 449.338L87.2486 447.026L88.3648 444.758L89.4582 442.535L90.5252 440.354L91.5628 438.217L92.5676 436.121L93.5371 434.066L94.4686 432.05L95.36 430.072" fill="#F3F5FC"/>
<path fill-rule="evenodd" clip-rule="evenodd" d="M95.36 430.072V430.072L96.2093 428.13L97.0149 426.222L97.7753 424.348L98.4895 422.504L99.1566 420.69L99.7763 418.902L100.348 417.14L100.872 415.4L101.349 413.682L101.779 411.982L102.164 410.3L102.503 408.632L102.799 406.978L103.054 405.335L103.268 403.701L103.444 402.075L103.584 400.454L103.69 398.838L103.765 397.226L103.809 395.614L103.826 394.003L103.818 392.391L103.787 390.778L103.736 389.161L103.666 387.54L103.58 385.915L103.48 384.285L103.367 382.648L103.244 381.005L103.112 379.355L102.973 377.697L102.827 376.031L102.677 374.357L102.522 372.673L102.364 370.981L102.203 369.278L102.039 367.565L101.872 365.841L101.702 364.106L101.529 362.359L101.353 360.599L101.175 358.826L100.993 357.039L100.809 355.239L100.624 353.423L100.436 351.593L100.248 349.747L100.059 347.885L99.8695 346.007L99.6815 344.112L99.4951 342.2L99.3114 340.271L99.1315 338.325L98.9564 336.362L98.7873 334.381L98.6258 332.383L98.4731 330.369L98.3308 328.337L98.2006 326.29L98.0842 324.226L97.9835 322.148L97.9003 320.055L97.8366 317.948L97.7945 315.829L97.7761 313.699L97.7835 311.559L97.8189 309.41L97.8846 307.254L97.9827 305.092L98.1156 302.927L98.2854 300.76L98.4943 298.593L98.7446 296.429L99.0383 294.269L99.3775 292.116L99.7643 289.973L100.201 287.842L100.688 285.726L101.229 283.627L101.824 281.548L102.475 279.492L103.185 277.462L103.953 275.461L104.78 273.492L105.669 271.558L106.62 269.661L107.632 267.805L108.708 265.993L109.846 264.227L111.048 262.51L112.312 260.846L113.64 259.236L115.029 257.684L116.48 256.191L117.992 254.761L119.563 253.395L121.193 252.095L122.88 250.864L124.621 249.702L126.417 248.612L128.264 247.595L130.159 246.652L132.102 245.782L134.089 244.988L136.118 244.27L138.186 243.626L140.29 243.058L142.426 242.564L144.593 242.143L146.787 241.796L149.003 241.519L151.24 241.313L153.494 241.174L155.762 241.1L158.04 241.091L160.326 241.142L162.617 241.254L164.91 241.423L167.203 241.647L169.493 241.924L171.778 242.252L174.056 242.629L176.324 243.052L178.581 243.519L180.825 244.028L183.054 244.577L185.266 245.163L187.461 245.783L189.635 246.436L191.789 247.119L193.921 247.83L196.03 248.566L198.115 249.325L200.175 250.106L202.209 250.906L204.217 251.722L206.199 252.555L208.153 253.4L210.08 254.256L211.979 255.122L213.85 255.995L215.693 256.872L217.507 257.752L219.293 258.632L221.051 259.51L222.779 260.383L224.48 261.25L226.153 262.107L227.798 262.953L229.415 263.784L231.006 264.599L232.571 265.396L234.11 266.171L235.625 266.922L237.116 267.648L238.584 268.345L240.03 269.012L241.456 269.647L242.862 270.248L244.25 270.812L245.621 271.337L246.977 271.823L248.319 272.267L249.648 272.668L250.967 273.023L252.277 273.333L253.579 273.596L254.877 273.811L256.17 273.976L257.462 274.092L258.754 274.158L260.048 274.173L261.346 274.138L262.65 274.052L263.961 273.915L265.282 273.729L266.615 273.492L267.96 273.207L269.321 272.873L270.699 272.492L272.095 272.065L273.511 271.594L274.95 271.079L276.411 270.522L277.897 269.925L279.41 269.291L280.949 268.619L282.518 267.914L284.116 267.177L285.744 266.41L287.405 265.615L289.098 264.795L290.824 263.953L292.584 263.09L294.378 262.21L296.208 261.315L298.072 260.407L299.972 259.49L301.908 258.565L303.879 257.636L305.885 256.706L307.927 255.776L310.004 254.85L312.116 253.93L314.263 253.019L316.443 252.119L318.656 251.233L320.902 250.363L323.18 249.511L325.489 248.681L327.829 247.874L330.197 247.092L332.594 246.337L335.019 245.612L337.471 244.916L339.949 244.252L342.453 243.619L344.982 243.019L347.537 242.453L350.116 241.919L352.72 241.42L355.348 240.954L358.001 240.522L360.678 240.124L363.379 239.76L366.104 239.431L368.853 239.137L371.624 238.878L374.419 238.655L377.237 238.469L380.076 238.319L382.936 238.208L385.816 238.137L388.715 238.106L391.63 238.119L394.561 238.175L397.506 238.277L400.462 238.427L403.429 238.625L406.403 238.874L409.384 239.174L412.368 239.528L415.354 239.936L418.34 240.399L421.323 240.92L424.301 241.498L427.271 242.135L430.231 242.833L433.178 243.591L436.111 244.412L439.025 245.294L441.919 246.241L444.79 247.251L447.635 248.325L450.451 249.464L453.236 250.668L455.987 251.937L458.701 253.272L461.375 254.672L464.007 256.137L466.593 257.667L469.132 259.262L471.62 260.921L474.055 262.644L476.434 264.43L478.755 266.277L481.015 268.187L483.211 270.156L485.342 272.185L487.405 274.272L489.398 276.415L491.32 278.614L493.167 280.866L494.938 283.171L496.632 285.526L498.247 287.929L499.781 290.379L501.233 292.874L502.602 295.412L503.886 297.99L505.086 300.606L506.199 303.259L507.226 305.946L508.165 308.665L509.017 311.413L509.78 314.188L510.456 316.987L511.043 319.809L511.542 322.651L511.954 325.511L512.278 328.385L512.515 331.272L512.666 334.17L512.731 337.075L512.712 339.986L512.609 342.901L512.424 345.816L512.157 348.73L511.81 351.641L511.385 354.546L510.883 357.444L510.305 360.332L509.654 363.209L508.932 366.072L508.14 368.919L507.28 371.75L506.355 374.561L505.367 377.353L504.318 380.122L503.21 382.869L502.046 385.59L500.828 388.286L499.56 390.954L498.245 393.595L496.885 396.206L495.485 398.788L494.047 401.339L492.577 403.859L491.077 406.348L489.551 408.806L488.003 411.231L486.438 413.626L484.858 415.989L483.269 418.321L481.674 420.623L480.076 422.895L478.481 425.139L476.891 427.355L475.31 429.545L473.742 431.71L472.191 433.85L470.659 435.969L469.151 438.067L467.669 440.147L466.217 442.21L464.796 444.258L463.41 446.293L462.061 448.318L460.749 450.334L459.478 452.344L458.247 454.349L457.059 456.352L455.913 458.355L454.81 460.359L453.75 462.368L452.734 464.382L451.76 466.404L450.828 468.435L449.937 470.477L449.086 472.531L448.273 474.599L447.498 476.683L446.758 478.783L446.051 480.901L445.375 483.037L444.729 485.192L444.109 487.366L443.512 489.561L442.937 491.777L442.381 494.013L441.841 496.27L441.313 498.548L440.796 500.846L440.285 503.163L439.778 505.5L439.273 507.856L438.765 510.229L438.253 512.619L437.733 515.025L437.203 517.445L436.659 519.879L436.099 522.324L435.52 524.78L434.921 527.245L434.297 529.717L433.648 532.194L432.971 534.676L432.264 537.16L431.525 539.644L430.752 542.126L429.944 544.606L429.098 547.08L428.215 549.548L427.292 552.007L426.328 554.455L425.323 556.892L424.275 559.314L423.184 561.721L422.049 564.111L420.871 566.482L419.648 568.832L418.38 571.161L417.068 573.466L415.711 575.747L414.31 578.002L412.864 580.23L411.374 582.429L409.841 584.599L408.265 586.739L406.647 588.847L404.987 590.923L403.285 592.966L401.544 594.976L399.763 596.951L397.943 598.892L396.086 600.797L394.191 602.665L392.261 604.498L390.295 606.293L388.296 608.052L386.262 609.772L384.197 611.454L382.099 613.096L379.97 614.699L377.81 616.26L375.621 617.78L373.402 619.257L371.154 620.689L368.878 622.076L366.574 623.416L364.242 624.707L361.884 625.949L359.5 627.14L357.091 628.277L354.656 629.36L352.197 630.386L349.715 631.353L347.21 632.261L344.684 633.107L342.136 633.889L339.568 634.605L336.982 635.254L334.377 635.834L331.756 636.344L329.119 636.781L326.469 637.144L323.805 637.433L321.131 637.646L318.448 637.782L315.757 637.84L313.06 637.821L310.359 637.723L307.656 637.547L304.953 637.292L302.252 636.96L299.554 636.55L296.861 636.063L294.176 635.5L291.501 634.863L288.837 634.153L286.186 633.371L283.551 632.521L280.933 631.603L278.333 630.621L275.754 629.576L273.197 628.473L270.663 627.313L268.154 626.101L265.672 624.839L263.216 623.532L260.788 622.183L258.39 620.797L256.021 619.376L253.682 617.926L251.374 616.451L249.096 614.956L246.849 613.444L244.633 611.921L242.446 610.391L240.29 608.858L238.162 607.328L236.062 605.804L233.989 604.292L231.941 602.796L229.918 601.32L227.917 599.868L225.937 598.445L223.976 597.054L222.032 595.7L220.102 594.386L218.185 593.114L216.278 591.889L214.378 590.714L212.484 589.59L210.591 588.521L208.698 587.509L206.803 586.554L204.901 585.659L202.99 584.826L201.068 584.054L199.132 583.344L197.179 582.697L195.207 582.113L193.213 581.59L191.195 581.128L189.15 580.726L187.077 580.382L184.973 580.094L182.837 579.861L180.666 579.679L178.46 579.546L176.218 579.459L173.937 579.413L171.619 579.407L169.261 579.435L166.865 579.493L164.43 579.577L161.955 579.683L159.443 579.805L156.895 579.939L154.31 580.077L151.693 580.216L149.044 580.348L146.367 580.468L143.664 580.569L140.939 580.645L138.196 580.691L135.438 580.698L132.671 580.663L129.897 580.578L127.123 580.438L124.353 580.238L121.592 579.972L118.845 579.636L116.118 579.225L113.416 578.735L110.744 578.163L108.108 577.505L105.513 576.759L102.963 575.922L100.464 574.994L98.0208 573.972L95.6372 572.856L93.3182 571.645L91.0682 570.339L88.8915 568.938L86.7923 567.442L84.7743 565.853L82.8414 564.171L80.9969 562.398L79.244 560.535L77.5858 558.585L76.0249 556.55L74.5635 554.433L73.204 552.236L71.9478 549.964L70.7965 547.618L69.7511 545.203L68.8124 542.723L67.9808 540.182L67.2565 537.583L66.6391 534.931L66.128 532.231L65.7224 529.486L65.4211 526.702L65.2224 523.883L65.1245 521.033L65.1253 518.158L65.2222 515.261L65.4124 512.347L65.6929 509.421L66.0604 506.487L66.5113 503.55L67.0419 500.613L67.648 497.682L68.3256 494.759L69.0701 491.848L69.877 488.954L70.7416 486.08L71.6591 483.229L72.6244 480.403L73.6327 477.607L74.6788 474.842L75.7577 472.111L76.8642 469.416L77.9933 466.76L79.1398 464.143L80.2988 461.567L81.4654 459.033L82.6348 456.543L83.8022 454.097L84.9632 451.695L86.1134 449.338L87.2486 447.026L88.3648 444.758L89.4582 442.535L90.5252 440.354L91.5628 438.217L92.5676 436.121L93.5371 434.066L94.4686 432.05L95.36 430.072" fill="#D3E7FE"/>
</g>
<defs>
<clipPath id="clip0_912_7611">
<rect width="618" height="638" fill="white" transform="translate(11 1)"/>
</clipPath>
</defs>
</svg>
